<svg id="Capa_1" enable-background="new 0 0 512 512" height="512" viewBox="0 0 512 512" width="512" xmlns="http://www.w3.org/2000/svg"><g><g><g><g><path d="m423.099 76.898h-88.611v80.13l25.944.832c0-16.459 12.004-30.459 28.27-32.971l27.361-4.226c17.559-2.712 35.418 4.57 45.364 19.292 4.984 7.377 7.894 16.27 7.894 25.843v90.697c0 47.318-31.817 87.206-75.224 99.435-14.85 4.184-30.16-5.095-33.665-20.121l-25.944.166v66.492h31.539c80.619 0 145.973-65.354 145.973-145.973v-90.697c0-49.097-39.802-88.899-88.901-88.899z" fill="#c9e2e7"/></g><path d="m329.831 405.074v-369.499c0-9.261 0-16.769-26.04-16.769h-287.022c-9.261.001-16.769 7.508-16.769 16.769v369.499c0 48.667 39.452 88.119 88.119 88.119h153.595c48.667-.001 88.117-39.453 88.117-88.119z" fill="#eff3f5"/><path d="m345.664 18.807h-41.874c9.261 0 16.769 7.508 16.769 16.769v369.499c0 48.667-39.452 88.119-88.119 88.119h41.874c48.667 0 88.119-39.452 88.119-88.119v-369.5c0-9.261-7.507-16.768-16.769-16.768z" fill="#daeaef"/></g><g><g><path d="m70.511 277.502h216.422c9.599 0 17.381-7.782 17.381-17.381v-116.247c0-9.599-7.782-17.381-17.381-17.381h-216.422c-9.599 0-17.381 7.782-17.381 17.381v116.246c0 9.6 7.781 17.382 17.381 17.382z" fill="#ddeafb"/><path d="m286.932 126.493h-41.874c9.599 0 17.381 7.782 17.381 17.381v116.246c0 9.6-7.782 17.381-17.381 17.381h41.874c9.599 0 17.381-7.782 17.381-17.381v-116.246c0-9.599-7.781-17.381-17.381-17.381z" fill="#cbe2ff"/><path d="m150.823 179.905c-6.881-8.291-19.602-8.291-26.483 0l-70.532 84.984c2.074 7.278 8.759 12.614 16.703 12.614h161.313z" fill="#61a2f9"/><path d="m286.932 277.502c8.04 0 14.785-5.466 16.771-12.879l-46.765-56.347c-6.881-8.291-19.602-8.291-26.483 0l-57.454 69.227h113.931z" fill="#9dc6fb"/><path d="m303.703 264.623-41.264-49.719v45.217c0 9.6-7.782 17.381-17.381 17.381h41.874c8.04 0 14.785-5.466 16.771-12.879z" fill="#80b4fb"/></g><g><path d="m304.313 325.488h-251.184c-4.268 0-7.726-3.459-7.726-7.726s3.459-7.726 7.726-7.726h251.184c4.268 0 7.726 3.459 7.726 7.726s-3.458 7.726-7.726 7.726z" fill="#a8d0d5"/></g><g><path d="m181.148 368.011h-128.019c-4.268 0-7.726-3.459-7.726-7.726s3.459-7.726 7.726-7.726h128.019c4.268 0 7.726 3.459 7.726 7.726s-3.458 7.726-7.726 7.726z" fill="#a8d0d5"/></g></g></g></g></svg>