<?xml version="1.0" encoding="iso-8859-1"?>
<!-- Generator: Adobe Illustrator 19.0.0, SVG Export Plug-In . SVG Version: 6.00 Build 0)  -->
<svg version="1.1" id="Capa_1" xmlns="http://www.w3.org/2000/svg" xmlns:xlink="http://www.w3.org/1999/xlink" x="0px" y="0px"
	 viewBox="0 0 469.333 469.333" style="enable-background:new 0 0 469.333 469.333;" xml:space="preserve">
<path style="fill:#F58F00;" d="M234.665,0c11.782,0,21.333,9.551,21.333,21.333c0,0,0,0,0,0V64l0,0h-42.667l0,0V21.333
	C213.332,9.551,222.883,0,234.665,0C234.665,0,234.665,0,234.665,0z"/>
<path style="fill:#F57400;" d="M245.331,3.27c-6.52,3.691-10.583,10.572-10.667,18.064V64h21.333V21.333
	C255.915,13.842,251.851,6.96,245.331,3.27z"/>
<path style="fill:#F7B236;" d="M63.999,63.997h341.336c23.564,0,42.667,19.103,42.667,42.667V277.33
	c0,23.564-19.103,42.667-42.667,42.667H63.999c-23.564,0-42.667-19.103-42.667-42.667V106.664
	C21.332,83.099,40.435,63.997,63.999,63.997z"/>
<g>
	<circle style="fill:#F7BE56;" cx="53.335" cy="95.997" r="10.667"/>
	<circle style="fill:#F7BE56;" cx="95.995" cy="95.997" r="10.667"/>
	<circle style="fill:#F7BE56;" cx="138.665" cy="181.337" r="10.667"/>
	<circle style="fill:#F7BE56;" cx="95.995" cy="181.337" r="10.667"/>
	<circle style="fill:#F7BE56;" cx="74.665" cy="138.667" r="10.667"/>
	<circle style="fill:#F7BE56;" cx="117.335" cy="138.667" r="10.667"/>
	<circle style="fill:#F7BE56;" cx="181.335" cy="223.997" r="10.667"/>
	<circle style="fill:#F7BE56;" cx="351.995" cy="95.997" r="10.667"/>
	<circle style="fill:#F7BE56;" cx="309.335" cy="138.667" r="10.667"/>
	<circle style="fill:#F7BE56;" cx="415.995" cy="95.997" r="10.667"/>
	<circle style="fill:#F7BE56;" cx="117.335" cy="223.997" r="10.667"/>
	<circle style="fill:#F7BE56;" cx="74.665" cy="223.997" r="10.667"/>
	<circle style="fill:#F7BE56;" cx="53.335" cy="266.667" r="10.667"/>
</g>
<path style="fill:#F5A20C;" d="M170.668,63.997h128.004c11.782,0,21.333,9.551,21.333,21.333v0.001
	c0,11.782-9.551,21.333-21.333,21.333H170.668c-11.782,0-21.333-9.551-21.333-21.333V85.33
	C149.335,73.548,158.886,63.997,170.668,63.997z"/>
<path style="fill:#F57400;" d="M149.332,320h-42.667L54.379,442.001c-4.266,9.954,0.345,21.481,10.299,25.747
	c2.441,1.046,5.069,1.585,7.724,1.585c7.844,0,14.933-4.675,18.023-11.884L149.332,320z"/>
<path style="fill:#F58F00;" d="M106.665,320L54.378,442c-0.484,1.216-0.843,2.478-1.074,3.767c2.772,1.46,5.857,2.226,8.99,2.233
	h0.001c7.844,0,14.933-4.675,18.022-11.884L130.081,320H106.665z"/>
<path style="fill:#F57400;" d="M319.998,320h42.667l52.286,122.001c4.266,9.954-0.345,21.481-10.299,25.747
	c-2.441,1.046-5.069,1.585-7.724,1.585c-7.844,0-14.933-4.675-18.023-11.884L319.998,320z"/>
<path style="fill:#F58F00;" d="M414.951,442l-52.286-122h-23.417l49.764,116.116c3.09,7.21,10.178,11.884,18.022,11.884h0.001
	c3.133-0.007,6.218-0.773,8.99-2.233C415.795,444.478,415.435,443.216,414.951,442L414.951,442z"/>
<path style="fill:#FAD48F;" d="M191.998,42.667h85.334c11.782,0,21.333,9.551,21.333,21.333v0.001
	c0,11.782-9.551,21.333-21.333,21.333h-85.334c-11.782,0-21.333-9.551-21.333-21.333V64
	C170.665,52.218,180.216,42.667,191.998,42.667z"/>
<path style="fill:#F59700;" d="M437.331,106.667c-5.891,0-10.667,4.775-10.667,10.666c0,0,0,0,0,0.001v160
	c0,11.782-9.551,21.333-21.333,21.333H287.998c-5.891,0-10.667,4.776-10.667,10.667S282.107,320,287.998,320h117.333
	c23.564,0,42.666-19.103,42.667-42.667v-160C447.998,111.443,443.223,106.667,437.331,106.667
	C437.332,106.667,437.332,106.667,437.331,106.667L437.331,106.667z"/>
<g>
	<path style="fill:#F56700;" d="M117.332,319.997h21.333c5.891,0,10.667,4.776,10.667,10.667l0,0
		c0,5.891-4.776,10.667-10.667,10.667h-21.333c-5.891,0-10.667-4.776-10.667-10.667l0,0
		C106.665,324.772,111.441,319.997,117.332,319.997z"/>
	<path style="fill:#F56700;" d="M330.662,319.997h21.333c5.891,0,10.667,4.776,10.667,10.667l0,0
		c0,5.891-4.776,10.667-10.667,10.667h-21.333c-5.891,0-10.667-4.776-10.667-10.667l0,0
		C319.995,324.772,324.771,319.997,330.662,319.997z"/>
</g>
<path style="fill:#5628B4;" d="M383.998,128c-51.656,0.051-95.828,37.16-104.789,88.033c-43.306-9.992-88.228,8.232-112.333,45.57
	c-37.896-15.624-81.282,2.431-96.906,40.327c-2.388,5.793-4.033,11.864-4.896,18.07h340.258c23.564,0,42.666-19.103,42.667-42.667
	V149.816C429.629,135.733,407.145,128.069,383.998,128L383.998,128z"/>
<path style="fill:#4310AC;" d="M426.665,277.333c0,11.782-9.551,21.333-21.333,21.333H287.998c-5.891,0-10.667,4.776-10.667,10.667
	c0,5.891,4.776,10.667,10.667,10.667h117.333c23.564,0,42.666-19.103,42.667-42.667V149.816
	c-6.629-4.881-13.785-9.004-21.333-12.289L426.665,277.333z"/>
<path style="fill:#EB6379;" d="M170.665,128l170.667,192h64v0c-26.262-105.049-108.285-187.071-213.333-213.333h0L170.665,128z"/>
<path style="fill:#E84C65;" d="M322.368,298.667L341.332,320h64c-1.809-7.233-3.938-14.329-6.263-21.333H322.368z"/>
<path style="fill:#EB6379;" d="M21.332,192c0,0,42.667-42.667,128-42.667c0,0-85.333,42.667-128,106.667V192z"/>
<path style="fill:#5628B4;" d="M330.665,256c-7.928,0.04-15.745,1.864-22.872,5.337c-20.243-28.773-59.979-35.687-88.752-15.444
	c-23.608,16.61-33.096,47.018-23.123,74.106h187.005c5.886-28.866-12.743-57.038-41.609-62.924
	C337.809,256.361,334.241,256.001,330.665,256z"/>
<path style="fill:#4310AC;" d="M382.923,298.667h-94.924c-5.891,0-10.667,4.776-10.667,10.667c0,5.891,4.776,10.667,10.667,10.667
	h94.924C384.357,312.961,384.357,305.706,382.923,298.667z"/>
<path style="fill:#FAD48F;" d="M149.328,298.667h170.664c11.782,0,21.333,9.551,21.333,21.333v0.001
	c0,11.782-9.551,21.333-21.333,21.333H149.328c-11.782,0-21.333-9.551-21.333-21.333V320
	C127.995,308.218,137.546,298.667,149.328,298.667z"/>
<g>
	<path style="fill:#F7BE56;" d="M160.002,319.997h149.336c5.891,0,10.667,4.776,10.667,10.667l0,0
		c0,5.891-4.776,10.667-10.667,10.667H160.002c-5.891,0-10.667-4.776-10.667-10.667l0,0
		C149.335,324.772,154.111,319.997,160.002,319.997z"/>
	<path style="fill:#F7BE56;" d="M202.662,63.997h63.996c5.891,0,10.667,4.776,10.667,10.667l0,0c0,5.891-4.776,10.666-10.667,10.666
		h-63.996c-5.891,0-10.667-4.776-10.667-10.666l0,0C191.995,68.772,196.771,63.997,202.662,63.997z"/>
</g>
<g>
</g>
<g>
</g>
<g>
</g>
<g>
</g>
<g>
</g>
<g>
</g>
<g>
</g>
<g>
</g>
<g>
</g>
<g>
</g>
<g>
</g>
<g>
</g>
<g>
</g>
<g>
</g>
<g>
</g>
</svg>
