<svg id="Capa_1" enable-background="new 0 0 497.54 497.54" height="512" viewBox="0 0 497.54 497.54" width="512" xmlns="http://www.w3.org/2000/svg"><g><g id="XMLID_126_"><g><path d="m449.85 14.49v468.56c0 8.01-6.49 14.49-14.49 14.49h-373.18c-8 0-14.49-6.48-14.49-14.49v-468.56c0-8 6.49-14.49 14.49-14.49h373.18c8 0 14.49 6.49 14.49 14.49z" fill="#e8ad8c"/></g></g><path d="m115.486 489.084c-8.003 0-14.49-6.487-14.49-14.49 0-3.957 3.25-7.107 7.207-7.052.145.002.29.003.436.003h280.264c17.092 0 30.948-13.856 30.948-30.948v-375.65c0-17.092-13.856-30.948-30.948-30.948h-280.265c-.026 0-.053 0-.079 0-4.152.01-7.563-3.253-7.563-7.405v-16.56c0-2.156.484-4.195 1.329-6.034h-40.145c-8.003 0-14.49 6.487-14.49 14.49v468.56c0 8.003 6.487 14.49 14.49 14.49h373.18c5.846 0 10.873-3.467 13.163-8.456z" fill="#e19974"/><path d="m92.69 436.596v-375.649c0-8.808 7.14-15.948 15.948-15.948h280.264c8.808 0 15.948 7.14 15.948 15.948v375.649c0 8.808-7.14 15.948-15.948 15.948h-280.264c-8.808 0-15.948-7.14-15.948-15.948z" fill="#bc7c63"/><path d="m365.599 75h-233.658c-5.109 0-9.251 4.142-9.251 9.251v329.038c0 5.109 4.142 9.251 9.251 9.251h28.689l27.95-10.09h143.581l5.749 10.09h27.689c5.109 0 9.251-4.142 9.251-9.251v-329.038c0-5.109-4.142-9.251-9.251-9.251z" fill="#fee97d"/><path d="m313.577 171.25c0-33.71-29.068-61.038-64.925-61.038h-4.63c-35.857 0-64.925 27.328-64.925 61.038v197.591h134.479v-197.591z" fill="#a79ba7"/><g><path d="m286.583 337.135-15.083-9.035v-106.74-8.81h-54.96v75.716c0 3.211-1.898 6.119-4.837 7.411l-8.263 3.633c-7 3.07-13.33 7.18-18.85 12.1v.01l.009.005 26.449 43.809z" fill="#ffe5c2"/></g><g id="XMLID_128_"><g><path d="m235.586 212.55h-19.046v75.716c0 3.211-1.898 6.119-4.837 7.411l-8.263 3.633c-7 3.07-13.33 7.18-18.85 12.1v.01l.009.005 15.491 25.658c3.069-4.289 6.6-8.255 10.567-11.793 5.52-4.92 11.85-9.03 18.85-12.1l8.263-3.633c2.94-1.293 4.837-4.2 4.837-7.411v-7.499c0-5.65 3.364-10.785 8.58-12.955 7.598-3.162 14.477-7.717 20.312-13.35v-41.912-5.07-8.81z" fill="#fed2a4"/><path d="m271.5 176.3v45.06c0 25.03-20.29 45.33-45.32 45.33-12.51 0-23.85-5.07-32.05-13.28-8.2-8.2-13.28-19.53-13.28-32.05v-45.06c0-1.62.98-3.08 2.47-3.7 7.1-2.95 13.83-6.68 20.06-11.09 6.23-4.42 11.98-9.53 17.12-15.25l2.14-2.39c1.89-2.1 5.19-2.1 7.08 0l2.14 2.39c10.28 11.44 22.98 20.44 37.18 26.34.75.31 1.36.83 1.79 1.48.43.64.67 1.41.67 2.22z" fill="#ffe5c2"/><path d="m199.86 176.514c7.192-4.789 13.83-10.326 19.764-16.524l2.471-2.59c2.182-2.276 5.992-2.276 8.173 0l2.471 2.59c10.853 11.336 24.048 20.453 38.762 26.82v-10.51c0-.81-.24-1.58-.67-2.22-.43-.65-1.04-1.17-1.79-1.48-14.2-5.9-26.9-14.9-37.18-26.34l-2.14-2.39c-1.89-2.1-5.19-2.1-7.08 0l-2.14 2.39c-5.14 5.72-10.89 10.83-17.12 15.25-6.23 4.41-12.96 8.14-20.06 11.09-1.49.62-2.47 2.08-2.47 3.7v10.514c6.674-2.888 13.042-6.336 19.009-10.3z" fill="#fed2a4"/></g></g><g id="XMLID_142_"><g><g id="XMLID_143_"><g><path d="m337.91 364.88v57.66h-177.28v-57.66c0-20.77 8.97-40.1 23.96-53.47v.01l6.38 3.58c24.81 13.89 53.36 18.26 80.53 13.1 12.19-2.32 24.1-6.56 35.28-12.72l5.511-3.044c.991-.547 2.233-.412 3.058.363 2.891 2.715 5.541 5.661 7.931 8.801 9.31 12.22 14.63 27.37 14.63 43.38z" fill="#918291"/></g></g></g></g><g><path d="m186.697 378.76c0-20.77 8.97-40.1 23.96-53.47.419-.374.852-.733 1.281-1.098-7.195-2.369-14.223-5.416-20.968-9.192l-6.38-3.58v-.01c-14.99 13.37-23.96 32.7-23.96 53.47v57.66h26.067z" fill="#7a6d79"/></g><g id="XMLID_160_"><g><path d="m245.98 412.45v10.09h-57.4v-10.09c0-9.15 7.42-16.57 16.58-16.57h24.25c9.15 0 16.57 7.42 16.57 16.57z" fill="#b5adb6"/></g></g></g></svg>